<svg xmlns="http://www.w3.org/2000/svg" width="32" height="32" viewBox="0 0 32 32" fill="none">
  <circle cx="16" cy="16" r="16" fill="white"/>
  <path d="M10.616 7.864C12.752 7.864 14.648 8.296 16.304 9.16C17.984 10.024 19.28 11.224 20.192 12.76C21.104 14.296 21.56 16.024 21.56 17.944C21.56 19.864 21.104 21.592 20.192 23.128C19.28 24.664 17.984 25.864 16.304 26.728C14.648 27.592 12.752 28.024 10.616 28.024H7.32V7.864H10.616ZM10.328 23.848C12.368 23.848 13.976 23.272 15.152 22.12C16.328 20.944 16.916 19.624 16.916 17.944C16.916 16.264 16.328 14.92 15.152 13.768C13.976 12.616 12.368 12.04 10.328 12.04H11.868V23.848H10.328Z" fill="#F67985"/>
</svg> 